<?xml version="1.0" encoding="utf-8"?>
<!-- Generator: Adobe Illustrator 19.2.1, SVG Export Plug-In . SVG Version: 6.00 Build 0)  -->
<svg version="1.1" id="layer" xmlns="http://www.w3.org/2000/svg" xmlns:xlink="http://www.w3.org/1999/xlink" x="0px" y="0px"
	 viewBox="0 0 652 652" style="enable-background:new 0 0 652 652;" xml:space="preserve">
<style type="text/css">
	.st0{fill:#262357;}
</style>
<g>
	<path class="st0" d="M558.3,406.9c-2,4-8,11-18.4,11h-42.8c-10.3,0-16.5-7.2-18.3-10.9l-57.9-117.5c-5.7-11.1-17.6-14.6-27.6-14.6
		l-105.2,0c-9.7,0-15.4,6.2-15.4,15.3c0,9.7,6.3,15.3,15.5,15.3h72.4c30.8,0,56.3,18.6,56.3,56.2c0,37.9-25.7,56.2-56.3,56.2h-93
		c-8.4,0-15.4-4.9-15.4-15.5v-20.3c0-3.4,2.3-5.1,5.2-5.1H340c8.6,0,15.5-5.2,15.5-15.3c0-10.1-6.8-15.3-15.4-15.3l-77.8,0
		c-13,0-24.9-3.6-33.3-9.1c-4.3,49.9-40,80.6-92.2,80.6H20.4c-2.9,0-5.1-1.7-5.1-5.1V310.6c0-3.4,2.3-5.1,5-5.1h41
		c10.9,0,15.8,7,15.8,15.3v51.2h0c0,3.4,2.3,5.1,5.1,5.1c11,0,35.5,0,35.5,0c28,0,51.2-16.9,51.2-51.1c0-34.3-23.2-51.1-51.2-51.1
		l-97.4,0c-2.8,0-5-1.7-5-5.1v-20.3c0-11.5,8.1-15.5,15.6-15.5l106.4,0c30,0,57.1,11.1,73,31.5c8.7-20.8,28-31.5,52.4-31.5h152.4
		c18.7,0,39.9,6.4,51,28l49.3,103.3c0.5,1,1.5,1.5,2.8,1.5c1.2,0,2.2-0.4,2.8-1.5c0,0,61-128.2,61.4-128.9c0.3-0.7,1.6-2.5,4.5-2.5
		h46.9c2.8,0,5.1,1.7,5.1,5.1c0,1-0.2,1.8-0.5,2.5L558.3,406.9z"/>
</g>
</svg>
